<svg id="behance" xmlns="http://www.w3.org/2000/svg" xmlns:xlink="http://www.w3.org/1999/xlink" viewBox="0 0 320.677 320.674"><defs><style>.cls-1{fill:url(#linear-gradient);}.cls-2{fill:#fff;}.cls-3{opacity:0.6;}.cls-4{fill:url(#linear-gradient-2);}.cls-5{fill:url(#linear-gradient-3);}.cls-6{fill:url(#linear-gradient-4);}.cls-7{fill:url(#linear-gradient-5);}</style><linearGradient id="linear-gradient" x1="160.339" y1="320" x2="160.339" y2="-0.674" gradientTransform="matrix(1, 0, 0, -1, 0, 320)" gradientUnits="userSpaceOnUse"><stop offset="0" stop-color="#005cff"/><stop offset="1" stop-color="#0047ad"/></linearGradient><linearGradient id="linear-gradient-2" x1="57.747" y1="337.358" x2="262.93" y2="-18.031" gradientTransform="matrix(1, 0, 0, -1, 0, 320)" gradientUnits="userSpaceOnUse"><stop offset="0.225" stop-color="#fff" stop-opacity="0.3"/><stop offset="0.401" stop-color="#fff" stop-opacity="0"/></linearGradient><linearGradient id="linear-gradient-3" x1="22.801" y1="255.377" x2="127.916" y2="73.312" xlink:href="#linear-gradient-2"/><linearGradient id="linear-gradient-4" x1="203.026" y1="196.424" x2="273.668" y2="74.07" xlink:href="#linear-gradient-2"/><linearGradient id="linear-gradient-5" x1="224.305" y1="253.424" x2="252.217" y2="205.078" xlink:href="#linear-gradient-2"/></defs><title>behance</title><path class="cls-1" d="M37.831,0H282.844a37.833,37.833,0,0,1,37.833,37.833h0V282.841a37.833,37.833,0,0,1-37.833,37.833H37.833A37.833,37.833,0,0,1,0,282.841H0V37.831A37.831,37.831,0,0,1,37.831,0Z"/><path class="cls-2" d="M130.861,150.694s27.218-2.022,27.218-33.941-22.27-47.5-50.478-47.5H14.781V247.637H107.6s56.664,1.786,56.664-52.65C164.265,194.986,166.739,150.694,130.861,150.694ZM55.68,100.959H107.6s12.619,0,12.619,18.558-7.423,21.249-15.836,21.249H55.68V100.959Zm49.529,114.975H55.68V168.263H107.6s18.805-.247,18.805,24.5c0,20.627-13.753,22.964-21.2,23.171h0Z"/><path class="cls-2" d="M239.838,114.64c-68.6,0-68.535,68.535-68.535,68.535s-4.707,68.189,68.537,68.189c0,0,61.038,3.486,61.038-47.436H269.487s1.046,19.181-28.6,19.181c0,0-31.392,2.1-31.392-31.038h92.43S312.037,114.64,239.838,114.64Zm27.9,53.623h-58.6s3.837-27.5,31.392-27.5,27.211,27.5,27.211,27.5h0Z"/><rect class="cls-2" x="201.464" y="79.763" width="73.594" height="21.972"/><g class="cls-3"><path class="cls-4" d="M37.831,0H282.844a37.833,37.833,0,0,1,37.833,37.833h0V282.841a37.833,37.833,0,0,1-37.833,37.833H37.833A37.833,37.833,0,0,1,0,282.841H0V37.831A37.831,37.831,0,0,1,37.831,0Z"/><path class="cls-5" d="M130.861,150.694s27.218-2.022,27.218-33.941-22.27-47.5-50.478-47.5H14.781V247.637H107.6s56.664,1.786,56.664-52.65C164.265,194.986,166.739,150.694,130.861,150.694ZM55.68,100.959H107.6s12.619,0,12.619,18.558-7.423,21.249-15.836,21.249H55.68V100.959Zm49.529,114.975H55.68V168.263H107.6s18.805-.247,18.805,24.5c0,20.627-13.753,22.964-21.2,23.171h0Z"/><path class="cls-6" d="M239.838,114.64c-68.6,0-68.535,68.535-68.535,68.535s-4.707,68.189,68.537,68.189c0,0,61.038,3.486,61.038-47.436H269.487s1.046,19.181-28.6,19.181c0,0-31.392,2.1-31.392-31.038h92.43S312.037,114.64,239.838,114.64Zm27.9,53.623h-58.6s3.837-27.5,31.392-27.5,27.211,27.5,27.211,27.5h0Z"/><rect class="cls-7" x="201.464" y="79.763" width="73.594" height="21.972"/></g></svg>