<svg xmlns="http://www.w3.org/2000/svg" viewBox="0 0 395.418 212.832"><defs><style>.cls-1{fill:#282c34;}.cls-2{fill:#e06c75;}.cls-3{fill:#abb2bf;}.cls-4{fill:#56b6c2;}.cls-5{fill:#98c379;}.cls-6{fill:#61afef;}.cls-7{fill:#c678dd;}.cls-8{fill:#5c6370;}</style>

<clipPath id="triangle">
  <polygon points="0,212.837 395.418,212.837 0,0"/>
</clipPath>

</defs><rect class="cls-1" width="395.418" height="212.832" clip-path="url(#triangle)"/>
<path clip-path="url(#triangle)" class="cls-2" d="M11.672,80.913A2.817,2.817,0,0,1,14.3,77.831a2.289,2.289,0,0,1,1.68.731h0.036L15.953,77.52V75.337h1.188v8.5H16.169l-0.1-.72H16.037a2.733,2.733,0,0,1-1.835.863C12.679,83.983,11.672,82.856,11.672,80.913Zm4.281,1.3V79.426a1.943,1.943,0,0,0-1.391-.6A1.835,1.835,0,0,0,12.895,80.9c0,1.344.588,2.1,1.584,2.1A1.954,1.954,0,0,0,15.953,82.209Z"/>
<path clip-path="url(#triangle)" class="cls-2" d="M18.872,80.913a2.93,2.93,0,1,1,2.926,3.07A2.9,2.9,0,0,1,18.872,80.913Zm4.629,0c0-1.259-.659-2.1-1.7-2.1s-1.7.84-1.7,2.1,0.66,2.1,1.7,2.1S23.5,82.173,23.5,80.913Z" />
<path clip-path="url(#triangle)" class="cls-2" d="M26.312,80.913a3.068,3.068,0,0,1,3.3-3.082,3.024,3.024,0,0,1,2.158.84l-0.575.755a2.344,2.344,0,0,0-1.523-.611,2.012,2.012,0,0,0-2.135,2.1,1.99,1.99,0,0,0,2.1,2.1,2.707,2.707,0,0,0,1.739-.7l0.516,0.768a3.593,3.593,0,0,1-2.351.9A2.975,2.975,0,0,1,26.312,80.913Z"/>
<path clip-path="url(#triangle)" class="cls-2" d="M33.477,81.609V77.975h1.187v3.479c0,1.031.336,1.511,1.224,1.511a2.057,2.057,0,0,0,1.644-.971V77.975h1.187V83.84H37.746l-0.1-.972H37.6a2.764,2.764,0,0,1-2.123,1.115C34.1,83.983,33.477,83.145,33.477,81.609Z"/>
<path clip-path="url(#triangle)" class="cls-2" d="M40.425,77.975H41.36l0.1,0.768h0.023a1.425,1.425,0,0,1,1.319-.911,1.085,1.085,0,0,1,1.08,1.008,1.5,1.5,0,0,1,1.354-1.008c0.828,0,1.308.66,1.308,1.835V83.84H45.378V79.75c0-.588-0.168-0.9-0.54-0.9a1.074,1.074,0,0,0-.84.815V83.84H42.967V79.75c0-.588-0.155-0.9-0.527-0.9a1.054,1.054,0,0,0-.852.815V83.84H40.425V77.975Z"/>
<path clip-path="url(#triangle)" class="cls-2" d="M47.78,80.9a2.963,2.963,0,0,1,3-3.07,2.545,2.545,0,0,1,2.7,2.771,4.557,4.557,0,0,1-.048.647H48.968a1.948,1.948,0,0,0,2.146,1.8,3.12,3.12,0,0,0,1.7-.516l0.42,0.756a4.137,4.137,0,0,1-2.278.7A2.97,2.97,0,0,1,47.78,80.9Zm1.212-.527H52.41a1.525,1.525,0,0,0-1.6-1.607A1.805,1.805,0,0,0,48.992,80.374Z"/>
<path clip-path="url(#triangle)" class="cls-2" d="M55.257,77.975h0.972l0.1,0.948h0.048a2.947,2.947,0,0,1,2.159-1.092c1.367,0,1.99.852,1.99,2.375V83.84H59.334V80.361c0-1.019-.336-1.5-1.223-1.5a2.273,2.273,0,0,0-1.667.936V83.84H55.257V77.975Z"/>
<path clip-path="url(#triangle)" class="cls-2" d="M63.776,81.525V78.935H62.169v-0.9l1.655-.061,0.155-1.858h0.984v1.858h2.771v0.96H64.964v2.591a1.24,1.24,0,0,0,1.415,1.5,3.611,3.611,0,0,0,1.343-.252l0.24,0.876a5.488,5.488,0,0,1-1.859.335C64.363,83.983,63.776,82.988,63.776,81.525Z"/>
<path clip-path="url(#triangle)" class="cls-3" d="M71.12,82.868A1.08,1.08,0,1,1,72.2,83.983,1.069,1.069,0,0,1,71.12,82.868Z"/>
<path clip-path="url(#triangle)" class="cls-4" d="M76.605,84.9a1.536,1.536,0,0,1,.947-1.271V83.576a1.089,1.089,0,0,1-.6-0.972,1.45,1.45,0,0,1,.7-1.1V81.453a1.834,1.834,0,0,1-.731-1.511,2.178,2.178,0,0,1,2.363-2.111,2.555,2.555,0,0,1,.887.144h2.411V78.91H81.15a1.659,1.659,0,0,1,.433,1.067,2.053,2.053,0,0,1-2.3,2,2.527,2.527,0,0,1-.948-0.191,0.722,0.722,0,0,0-.407.611c0,0.42.407,0.612,1.163,0.612h1.247c1.523,0,2.279.407,2.279,1.4,0,1.139-1.3,2.074-3.322,2.074C77.625,86.49,76.605,85.927,76.605,84.9Zm4.845-.276c0-.516-0.419-0.647-1.247-0.647H79.16a3.125,3.125,0,0,1-.888-0.1,1.046,1.046,0,0,0-.672.875c0,0.564.647,0.912,1.812,0.912C80.659,85.663,81.45,85.159,81.45,84.619ZM80.5,79.942a1.23,1.23,0,1,0-1.223,1.271A1.2,1.2,0,0,0,80.5,79.942Z"/>
<path clip-path="url(#triangle)" class="cls-4" d="M83.781,80.9a2.963,2.963,0,0,1,3-3.07,2.545,2.545,0,0,1,2.7,2.771,4.557,4.557,0,0,1-.048.647H84.969a1.948,1.948,0,0,0,2.146,1.8,3.12,3.12,0,0,0,1.7-.516l0.42,0.756a4.137,4.137,0,0,1-2.278.7A2.97,2.97,0,0,1,83.781,80.9Zm1.212-.527h3.418a1.525,1.525,0,0,0-1.6-1.607A1.805,1.805,0,0,0,84.993,80.374Z"/>
<path clip-path="url(#triangle)" class="cls-4" d="M92.577,81.525V78.935H90.97v-0.9l1.655-.061,0.155-1.858h0.984v1.858h2.771v0.96H93.765v2.591a1.24,1.24,0,0,0,1.415,1.5,3.611,3.611,0,0,0,1.343-.252l0.24,0.876a5.488,5.488,0,0,1-1.859.335C93.164,83.983,92.577,82.988,92.577,81.525Z"/>
<path clip-path="url(#triangle)" class="cls-4" d="M98.71,75.984h4.941v1.007H99.909v2.243h3.166v1.008H99.909v2.59h3.861V83.84H98.71V75.984Z"/>
<path clip-path="url(#triangle)" class="cls-4" d="M107.433,81.789v-5.5h-1.919V75.337h3.106v6.524a1.013,1.013,0,0,0,1.1,1.151,2.687,2.687,0,0,0,1.056-.252l0.288,0.888a3.994,3.994,0,0,1-1.619.335A1.9,1.9,0,0,1,107.433,81.789Z"/>
<path clip-path="url(#triangle)" class="cls-4" d="M112.582,80.9a2.963,2.963,0,0,1,3-3.07,2.545,2.545,0,0,1,2.7,2.771,4.557,4.557,0,0,1-.048.647H113.77a1.948,1.948,0,0,0,2.146,1.8,3.12,3.12,0,0,0,1.7-.516l0.42,0.756a4.137,4.137,0,0,1-2.278.7A2.97,2.97,0,0,1,112.582,80.9Zm1.212-.527h3.418a1.525,1.525,0,0,0-1.6-1.607A1.805,1.805,0,0,0,113.794,80.374Z"/>
<path clip-path="url(#triangle)" class="cls-4" d="M119.627,77.975h0.936l0.1,0.768h0.023A1.425,1.425,0,0,1,122,77.831a1.085,1.085,0,0,1,1.08,1.008,1.5,1.5,0,0,1,1.354-1.008c0.828,0,1.308.66,1.308,1.835V83.84H124.58V79.75c0-.588-0.168-0.9-0.54-0.9a1.074,1.074,0,0,0-.84.815V83.84h-1.031V79.75c0-.588-0.155-0.9-0.527-0.9a1.054,1.054,0,0,0-.852.815V83.84h-1.163V77.975Z"/>
<path clip-path="url(#triangle)" class="cls-4" d="M126.982,80.9a2.963,2.963,0,0,1,3-3.07,2.545,2.545,0,0,1,2.7,2.771,4.557,4.557,0,0,1-.048.647H128.17a1.948,1.948,0,0,0,2.146,1.8,3.12,3.12,0,0,0,1.7-.516l0.42,0.756a4.137,4.137,0,0,1-2.278.7A2.97,2.97,0,0,1,126.982,80.9Zm1.212-.527h3.418a1.525,1.525,0,0,0-1.6-1.607A1.805,1.805,0,0,0,128.194,80.374Z"/>
<path clip-path="url(#triangle)" class="cls-4" d="M134.459,77.975h0.972l0.1,0.948h0.048a2.947,2.947,0,0,1,2.159-1.092c1.367,0,1.99.852,1.99,2.375V83.84h-1.187V80.361c0-1.019-.335-1.5-1.223-1.5a2.273,2.273,0,0,0-1.667.936V83.84h-1.187V77.975Z"/>
<path clip-path="url(#triangle)" class="cls-4" d="M142.979,81.525V78.935h-1.607v-0.9l1.655-.061,0.155-1.858h0.984v1.858h2.77v0.96h-2.77v2.591a1.24,1.24,0,0,0,1.415,1.5,3.611,3.611,0,0,0,1.343-.252l0.24,0.876a5.488,5.488,0,0,1-1.859.335C143.565,83.983,142.979,82.988,142.979,81.525Z"/>
<path clip-path="url(#triangle)" class="cls-4" d="M148.907,75.984h2.339c1.606,0,2.746.516,2.746,1.919a1.719,1.719,0,0,1-1.367,1.715v0.048a1.82,1.82,0,0,1,1.787,1.871c0,1.56-1.224,2.3-2.975,2.3h-2.53V75.984Zm2.194,3.262c1.212,0,1.716-.407,1.716-1.211,0-.779-0.564-1.067-1.68-1.067h-1.031v2.278h1Zm0.192,3.61c1.247,0,1.942-.42,1.942-1.392,0-.9-0.671-1.259-1.942-1.259h-1.187v2.65h1.188Z"/>
<path clip-path="url(#triangle)" class="cls-4" d="M155.808,86.179l0.239-.924a1.649,1.649,0,0,0,.5.084,1.587,1.587,0,0,0,1.512-1.127l0.155-.408-2.674-5.829h1.187l1.319,3.059c0.216,0.528.444,1.14,0.684,1.715h0.049c0.191-.563.407-1.175,0.6-1.715l1.163-3.059h1.127l-2.506,6.237a2.65,2.65,0,0,1-2.555,2.087A2.687,2.687,0,0,1,155.808,86.179Z"/>
<path clip-path="url(#triangle)" class="cls-4" d="M163.283,82.832H165.2V76.991h-1.919V75.984h5.037v1.007H166.4v5.841h1.919V83.84h-5.037V82.832Z"/>
<path clip-path="url(#triangle)" class="cls-4" d="M170.076,80.913a2.817,2.817,0,0,1,2.626-3.082,2.289,2.289,0,0,1,1.68.731h0.036l-0.061-1.043V75.337h1.188v8.5h-0.972l-0.1-.72h-0.036a2.733,2.733,0,0,1-1.835.863C171.083,83.983,170.076,82.856,170.076,80.913Zm4.281,1.3V79.426a1.943,1.943,0,0,0-1.391-.6A1.835,1.835,0,0,0,171.3,80.9c0,1.344.588,2.1,1.584,2.1A1.954,1.954,0,0,0,174.357,82.209Z"/>
<path clip-path="url(#triangle)" class="cls-3" d="M179.016,80.506a6.746,6.746,0,0,1,2.65-5.445l0.659,0.563a6.368,6.368,0,0,0,0,9.763l-0.659.564A6.746,6.746,0,0,1,179.016,80.506Z"/>
<path clip-path="url(#triangle)" class="cls-5" d="M186.684,77.027l-0.036-1.415h1.511l-0.036,1.415-0.336,2.734h-0.768Z"/>
<path clip-path="url(#triangle)" class="cls-5" d="M195.19,81.441H193.68l-0.288,2.4h-0.743l0.3-2.4H192V80.649h1.044l0.2-1.667H192.24V78.191h1.1l0.264-2.147h0.731l-0.264,2.147h1.511l0.265-2.147h0.731l-0.264,2.147h0.959v0.791h-1.056l-0.2,1.667h1.019v0.792h-1.115l-0.287,2.4h-0.744Zm0.3-2.459h-1.511l-0.2,1.667h1.511Z"/>
<path clip-path="url(#triangle)" class="cls-5" d="M200.58,81.525V78.935h-1.607v-0.9l1.655-.061,0.155-1.858h0.984v1.858h2.77v0.96h-2.77v2.591a1.24,1.24,0,0,0,1.415,1.5,3.611,3.611,0,0,0,1.343-.252l0.24,0.876a5.488,5.488,0,0,1-1.859.335C201.167,83.983,200.58,82.988,200.58,81.525Z"/>
<path clip-path="url(#triangle)" class="cls-5" d="M207.061,77.975h0.983l0.1,1.368h0.036a3.012,3.012,0,0,1,2.555-1.512,2.537,2.537,0,0,1,1.151.24l-0.264,1.02a2.865,2.865,0,0,0-1.067-.192,2.609,2.609,0,0,0-2.3,1.607V83.84h-1.187V77.975Z"/>
<path clip-path="url(#triangle)" class="cls-5" d="M216.275,78.935h-2.627v-0.96h3.814V83.84h-1.187V78.935Zm-0.4-2.95a0.888,0.888,0,1,1,.888.852A0.841,0.841,0,0,1,215.88,75.984Z"/>
<path clip-path="url(#triangle)" class="cls-5" d="M220.717,82.293c0-1.319,1.188-1.955,4.138-2.183a1.281,1.281,0,0,0-1.463-1.308,4.1,4.1,0,0,0-1.991.659l-0.443-.8a5.287,5.287,0,0,1,2.639-.827,2.228,2.228,0,0,1,2.446,2.482V83.84H225.07l-0.1-.756h-0.036a3.887,3.887,0,0,1-2.242.9A1.771,1.771,0,0,1,220.717,82.293Zm4.138-.036V80.865c-2.3.18-2.986,0.636-2.986,1.344a0.956,0.956,0,0,0,1.164.827A2.916,2.916,0,0,0,224.854,82.257Z"/>
<path clip-path="url(#triangle)" class="cls-5" d="M228.062,77.975h0.972l0.1,0.948h0.048a2.947,2.947,0,0,1,2.159-1.092c1.367,0,1.99.852,1.99,2.375V83.84h-1.187V80.361c0-1.019-.336-1.5-1.223-1.5a2.273,2.273,0,0,0-1.667.936V83.84h-1.187V77.975Z"/>
<path clip-path="url(#triangle)" class="cls-5" d="M235.01,84.9a1.536,1.536,0,0,1,.947-1.271V83.576a1.089,1.089,0,0,1-.6-0.972,1.45,1.45,0,0,1,.7-1.1V81.453a1.834,1.834,0,0,1-.731-1.511,2.178,2.178,0,0,1,2.363-2.111,2.555,2.555,0,0,1,.887.144h2.411V78.91h-1.428a1.659,1.659,0,0,1,.433,1.067,2.053,2.053,0,0,1-2.3,2,2.527,2.527,0,0,1-.948-0.191,0.722,0.722,0,0,0-.407.611c0,0.42.407,0.612,1.163,0.612h1.247c1.523,0,2.279.407,2.279,1.4,0,1.139-1.3,2.074-3.322,2.074C236.029,86.49,235.01,85.927,235.01,84.9Zm4.845-.276c0-.516-0.419-0.647-1.247-0.647h-1.043a3.125,3.125,0,0,1-.888-0.1,1.046,1.046,0,0,0-.672.875c0,0.564.647,0.912,1.812,0.912C239.063,85.663,239.854,85.159,239.854,84.619Zm-0.947-4.677a1.23,1.23,0,1,0-1.223,1.271A1.2,1.2,0,0,0,238.907,79.942Z"/>
<path clip-path="url(#triangle)" class="cls-5" d="M244.236,81.789v-5.5h-1.919V75.337h3.106v6.524a1.013,1.013,0,0,0,1.1,1.151,2.687,2.687,0,0,0,1.056-.252l0.288,0.888a3.994,3.994,0,0,1-1.619.335A1.9,1.9,0,0,1,244.236,81.789Z"/>
<path clip-path="url(#triangle)" class="cls-5" d="M249.386,80.9a2.963,2.963,0,0,1,3-3.07,2.545,2.545,0,0,1,2.7,2.771,4.557,4.557,0,0,1-.048.647h-4.462a1.948,1.948,0,0,0,2.146,1.8,3.12,3.12,0,0,0,1.7-.516l0.42,0.756a4.137,4.137,0,0,1-2.278.7A2.97,2.97,0,0,1,249.386,80.9Zm1.212-.527h3.418a1.525,1.525,0,0,0-1.6-1.607A1.805,1.805,0,0,0,250.6,80.374Z"/>
<path clip-path="url(#triangle)" class="cls-5" d="M258.686,77.027l-0.036-1.415h1.511l-0.036,1.415-0.336,2.734h-0.768Z"/>
<path clip-path="url(#triangle)" class="cls-3" d="M264.482,85.387a6.368,6.368,0,0,0,0-9.763l0.659-.563a6.919,6.919,0,0,1,0,10.891Z"/>
<path clip-path="url(#triangle)" class="cls-3" d="M42.319,97.269A1.08,1.08,0,1,1,43.4,98.384,1.069,1.069,0,0,1,42.319,97.269Z"/>
<path clip-path="url(#triangle)" class="cls-6" d="M47.912,96.693c0-1.319,1.188-1.955,4.138-2.183A1.281,1.281,0,0,0,50.587,93.2a4.1,4.1,0,0,0-1.991.659l-0.443-.8a5.287,5.287,0,0,1,2.639-.827,2.228,2.228,0,0,1,2.446,2.482V98.24H52.266l-0.1-.756H52.134a3.887,3.887,0,0,1-2.242.9A1.771,1.771,0,0,1,47.912,96.693Zm4.138-.036V95.266c-2.3.18-2.986,0.636-2.986,1.344a0.956,0.956,0,0,0,1.164.827A2.916,2.916,0,0,0,52.05,96.657Z"/>
<path clip-path="url(#triangle)" class="cls-6" d="M54.873,95.313A2.817,2.817,0,0,1,57.5,92.231a2.289,2.289,0,0,1,1.68.731h0.036L59.154,91.92V89.737h1.188v8.5H59.37l-0.1-.72H59.238a2.733,2.733,0,0,1-1.835.863C55.88,98.384,54.873,97.257,54.873,95.313Zm4.281,1.3V93.826a1.943,1.943,0,0,0-1.391-.6A1.835,1.835,0,0,0,56.1,95.3c0,1.344.588,2.1,1.584,2.1A1.954,1.954,0,0,0,59.154,96.609Z"/>
<path clip-path="url(#triangle)" class="cls-6" d="M62.073,95.313A2.817,2.817,0,0,1,64.7,92.231a2.289,2.289,0,0,1,1.68.731h0.036L66.354,91.92V89.737h1.188v8.5H66.57l-0.1-.72H66.438a2.733,2.733,0,0,1-1.835.863C63.08,98.384,62.073,97.257,62.073,95.313Zm4.281,1.3V93.826a1.941,1.941,0,0,0-1.391-.6A1.835,1.835,0,0,0,63.3,95.3c0,1.344.588,2.1,1.584,2.1A1.954,1.954,0,0,0,66.354,96.609Z"/>
<path clip-path="url(#triangle)" class="cls-6" d="M69.909,90.385h4.941v1.007H71.108v2.243h3.166v1.008H71.108v2.59H74.97V98.24H69.909V90.385Z"/>
<path clip-path="url(#triangle)" class="cls-6" d="M76.354,92.375h1.2l1.235,3.19c0.228,0.588.42,1.164,0.624,1.739H79.46c0.2-.575.384-1.151,0.611-1.739l1.235-3.19h1.14L80.1,98.24H78.752Z"/>
<path clip-path="url(#triangle)" class="cls-6" d="M83.781,95.3a2.963,2.963,0,0,1,3-3.07A2.545,2.545,0,0,1,89.479,95a4.557,4.557,0,0,1-.048.647H84.969a1.948,1.948,0,0,0,2.146,1.8,3.12,3.12,0,0,0,1.7-.516l0.42,0.756a4.137,4.137,0,0,1-2.278.7A2.97,2.97,0,0,1,83.781,95.3Zm1.212-.527h3.418a1.525,1.525,0,0,0-1.6-1.607A1.805,1.805,0,0,0,84.993,94.774Z"/>
<path clip-path="url(#triangle)" class="cls-6" d="M91.258,92.375h0.972l0.1,0.948h0.048a2.947,2.947,0,0,1,2.159-1.092c1.367,0,1.99.852,1.99,2.375V98.24H95.335V94.762c0-1.019-.335-1.5-1.223-1.5a2.273,2.273,0,0,0-1.667.936V98.24H91.258V92.375Z"/>
<path clip-path="url(#triangle)" class="cls-6" d="M99.777,95.926V93.335H98.17v-0.9l1.655-.061,0.155-1.858h0.984v1.858h2.77v0.96h-2.77v2.591a1.24,1.24,0,0,0,1.415,1.5,3.611,3.611,0,0,0,1.343-.252l0.24,0.876a5.488,5.488,0,0,1-1.859.335C100.364,98.384,99.777,97.389,99.777,95.926Z"/>
<path clip-path="url(#triangle)" class="cls-6" d="M106.126,90.385h1.188v6.848h3.777V98.24h-4.965V90.385Z"/>
<path clip-path="url(#triangle)" class="cls-6" d="M115.473,93.335h-2.627v-0.96h3.814V98.24h-1.187V93.335Zm-0.4-2.95a0.888,0.888,0,1,1,.888.852A0.841,0.841,0,0,1,115.077,90.385Z"/>
<path clip-path="url(#triangle)" class="cls-6" d="M119.807,97.473l0.527-.768a4.172,4.172,0,0,0,2.5.768c0.9,0,1.331-.359,1.331-0.8,0-.42-0.24-0.672-1.715-0.983-1.548-.324-2.279-0.852-2.279-1.739,0-.983.876-1.715,2.507-1.715a4.484,4.484,0,0,1,2.4.768l-0.552.744a3.546,3.546,0,0,0-1.954-.6c-0.888,0-1.212.336-1.212,0.744,0,0.456.468,0.647,1.607,0.888,1.919,0.42,2.4.911,2.4,1.822,0,0.984-.959,1.787-2.687,1.787A5.181,5.181,0,0,1,119.807,97.473Z"/>
<path clip-path="url(#triangle)" class="cls-6" d="M128.578,95.926V93.335h-1.607v-0.9l1.655-.061,0.155-1.858h0.984v1.858h2.77v0.96h-2.77v2.591a1.24,1.24,0,0,0,1.415,1.5,3.611,3.611,0,0,0,1.343-.252l0.24,0.876a5.488,5.488,0,0,1-1.859.335C129.165,98.384,128.578,97.389,128.578,95.926Z"/>
<path clip-path="url(#triangle)" class="cls-6" d="M134.183,95.3a2.963,2.963,0,0,1,3-3.07A2.545,2.545,0,0,1,139.88,95a4.557,4.557,0,0,1-.048.647H135.37a1.948,1.948,0,0,0,2.146,1.8,3.12,3.12,0,0,0,1.7-.516l0.42,0.756a4.137,4.137,0,0,1-2.278.7A2.97,2.97,0,0,1,134.183,95.3Zm1.212-.527h3.418a1.525,1.525,0,0,0-1.6-1.607A1.805,1.805,0,0,0,135.395,94.774Z"/>
<path clip-path="url(#triangle)" class="cls-6" d="M141.659,92.375h0.972l0.1,0.948h0.048a2.947,2.947,0,0,1,2.159-1.092c1.367,0,1.99.852,1.99,2.375V98.24h-1.187V94.762c0-1.019-.336-1.5-1.223-1.5a2.273,2.273,0,0,0-1.667.936V98.24h-1.187V92.375Z"/>
<path clip-path="url(#triangle)" class="cls-6" d="M148.583,95.3a2.963,2.963,0,0,1,3-3.07A2.545,2.545,0,0,1,154.28,95a4.557,4.557,0,0,1-.048.647h-4.462a1.948,1.948,0,0,0,2.146,1.8,3.12,3.12,0,0,0,1.7-.516l0.42,0.756a4.137,4.137,0,0,1-2.278.7A2.97,2.97,0,0,1,148.583,95.3Zm1.212-.527h3.418a1.525,1.525,0,0,0-1.6-1.607A1.805,1.805,0,0,0,149.795,94.774Z"/>
<path clip-path="url(#triangle)" class="cls-6" d="M156.659,92.375h0.983l0.1,1.368h0.036a3.012,3.012,0,0,1,2.555-1.512,2.537,2.537,0,0,1,1.151.24l-0.264,1.02a2.865,2.865,0,0,0-1.067-.192,2.609,2.609,0,0,0-2.3,1.607V98.24h-1.187V92.375Z"/>
<path clip-path="url(#triangle)" class="cls-3" d="M164.615,94.906a6.746,6.746,0,0,1,2.65-5.445l0.659,0.563a6.368,6.368,0,0,0,0,9.763l-0.659.564A6.746,6.746,0,0,1,164.615,94.906Z"/>
<path clip-path="url(#triangle)" class="cls-5" d="M172.283,91.428l-0.036-1.415h1.511l-0.036,1.415-0.336,2.734h-0.768Z"/>
<path clip-path="url(#triangle)" class="cls-5" d="M177.516,95.313a3.068,3.068,0,0,1,3.3-3.082,3.024,3.024,0,0,1,2.158.84l-0.575.755a2.344,2.344,0,0,0-1.523-.611,2.012,2.012,0,0,0-2.135,2.1,1.99,1.99,0,0,0,2.1,2.1,2.707,2.707,0,0,0,1.739-.7l0.516,0.768a3.593,3.593,0,0,1-2.351.9A2.975,2.975,0,0,1,177.516,95.313Z"/>
<path clip-path="url(#triangle)" class="cls-5" d="M186.635,96.189v-5.5h-1.919V89.737h3.106v6.524a1.013,1.013,0,0,0,1.1,1.151,2.687,2.687,0,0,0,1.056-.252l0.288,0.888a3.994,3.994,0,0,1-1.619.335A1.9,1.9,0,0,1,186.635,96.189Z"/>
<path clip-path="url(#triangle)" class="cls-5" d="M194.675,93.335h-2.627v-0.96h3.814V98.24h-1.187V93.335Zm-0.4-2.95a0.888,0.888,0,1,1,.888.852A0.841,0.841,0,0,1,194.279,90.385Z"/>
<path clip-path="url(#triangle)" class="cls-5" d="M199.116,95.313a3.068,3.068,0,0,1,3.3-3.082,3.024,3.024,0,0,1,2.158.84L204,93.826a2.344,2.344,0,0,0-1.523-.611,2.012,2.012,0,0,0-2.135,2.1,1.99,1.99,0,0,0,2.1,2.1,2.707,2.707,0,0,0,1.739-.7l0.516,0.768a3.593,3.593,0,0,1-2.351.9A2.975,2.975,0,0,1,199.116,95.313Z"/>
<path clip-path="url(#triangle)" class="cls-5" d="M206.581,89.737h1.187v5.541h0.049l2.89-2.9h1.332l-2.3,2.327,2.59,3.538h-1.307L209,95.434l-1.235,1.247v1.56h-1.187v-8.5Z"/>
<path clip-path="url(#triangle)" class="cls-5" d="M215.484,91.428l-0.036-1.415h1.511l-0.036,1.415-0.336,2.734h-0.768Z"/>
<path clip-path="url(#triangle)" class="cls-3" d="M222.12,100.075a2.078,2.078,0,0,0,1.523-1.907,0.976,0.976,0,0,1-.192.013,0.95,0.95,0,0,1-1.031-.983,0.98,0.98,0,0,1,1.056-1c0.768,0,1.176.636,1.176,1.667a2.978,2.978,0,0,1-2.207,2.938Z"/>
<path clip-path="url(#triangle)" class="cls-7" d="M42.619,107.734H40.977v-0.9l1.643-.061v-0.407a2.173,2.173,0,0,1,2.423-2.375,4.6,4.6,0,0,1,1.715.336l-0.264.876a3.082,3.082,0,0,0-1.319-.265,1.228,1.228,0,0,0-1.379,1.4v0.432h2.338v0.96H43.795v4.905H42.619v-4.905Z"/>
<path clip-path="url(#triangle)" class="cls-7" d="M47.877,110.409v-3.635h1.187v3.479c0,1.031.336,1.511,1.224,1.511a2.057,2.057,0,0,0,1.644-.971v-4.019h1.187v5.865H52.146l-0.1-.972H52a2.764,2.764,0,0,1-2.123,1.115C48.5,112.783,47.877,111.944,47.877,110.409Z"/>
<path clip-path="url(#triangle)" class="cls-7" d="M55.257,106.774h0.972l0.1,0.948h0.048a2.947,2.947,0,0,1,2.159-1.092c1.367,0,1.99.852,1.99,2.375v3.634H59.334v-3.479c0-1.019-.336-1.5-1.223-1.5a2.273,2.273,0,0,0-1.667.936v4.042H55.257v-5.865Z"/>
<path clip-path="url(#triangle)" class="cls-7" d="M62.313,109.713a3.068,3.068,0,0,1,3.3-3.082,3.024,3.024,0,0,1,2.158.84l-0.575.756a2.335,2.335,0,0,0-1.523-.612,2.012,2.012,0,0,0-2.135,2.1,1.99,1.99,0,0,0,2.1,2.1,2.707,2.707,0,0,0,1.739-.7l0.516,0.768a3.593,3.593,0,0,1-2.351.9A2.975,2.975,0,0,1,62.313,109.713Z"/>
<path clip-path="url(#triangle)" class="cls-7" d="M70.977,110.325v-2.591H69.369v-0.9l1.655-.061,0.155-1.858h0.984v1.858h2.77v0.96h-2.77v2.591a1.24,1.24,0,0,0,1.415,1.5,3.611,3.611,0,0,0,1.343-.252l0.24,0.875a5.463,5.463,0,0,1-1.859.336C71.563,112.783,70.977,111.788,70.977,110.325Z"/>
<path clip-path="url(#triangle)" class="cls-7" d="M79.472,107.734H76.845v-0.96h3.814v5.865H79.472v-4.905Zm-0.4-2.95a0.888,0.888,0,1,1,.888.852A0.841,0.841,0,0,1,79.076,104.784Z"/>
<path clip-path="url(#triangle)" class="cls-7" d="M83.674,109.713a2.93,2.93,0,1,1,2.926,3.07A2.9,2.9,0,0,1,83.674,109.713Zm4.629,0c0-1.259-.659-2.1-1.7-2.1s-1.7.84-1.7,2.1,0.66,2.1,1.7,2.1S88.3,110.973,88.3,109.713Z"/>
<path clip-path="url(#triangle)" class="cls-7" d="M91.258,106.774h0.972l0.1,0.948h0.048a2.947,2.947,0,0,1,2.159-1.092c1.367,0,1.99.852,1.99,2.375v3.634H95.335v-3.479c0-1.019-.335-1.5-1.223-1.5a2.273,2.273,0,0,0-1.667.936v4.042H91.258v-5.865Z"/>
<path clip-path="url(#triangle)" class="cls-3" d="M99.813,109.306a6.746,6.746,0,0,1,2.65-5.445l0.659,0.563a6.368,6.368,0,0,0,0,9.763l-0.659.563A6.742,6.742,0,0,1,99.813,109.306Z"/>
<path clip-path="url(#triangle)" class="cls-3" d="M106.078,114.187a6.368,6.368,0,0,0,0-9.763l0.659-.563a6.918,6.918,0,0,1,0,10.89Z"/>
<path clip-path="url(#triangle)" class="cls-3" d="M114.8,112.832c0-.864.108-1.439,0.108-2.243,0-.456-0.324-0.911-1.715-0.924v-0.72c1.391-.012,1.715-0.468,1.715-0.923,0-.756-0.108-1.415-0.108-2.243,0-1.259.708-1.631,2.219-1.631h0.78v0.659h-0.588c-1.163,0-1.415.276-1.415,1.032,0,0.671.071,1.379,0.071,2.11a1.15,1.15,0,0,1-1.127,1.331v0.048a1.151,1.151,0,0,1,1.127,1.332c0,0.791-.071,1.4-0.071,2.11,0,0.756.252,1.031,1.415,1.031H117.8v0.66h-0.78C115.509,114.463,114.8,114.091,114.8,112.832Z"/>
<path clip-path="url(#triangle)" class="cls-8" d="M74.694,132.925h1.02l-6.021,10.435H68.686Z"/>
<path clip-path="url(#triangle)" class="cls-8" d="M81.895,132.925h1.02l-6.021,10.435H75.886Z"/>
<path clip-path="url(#triangle)" class="cls-8" d="M83.9,138.382c0-2.53,1.679-4.941,4.09-4.941a2.226,2.226,0,0,1,1.979,1.188l-0.779.588a1.43,1.43,0,0,0-1.259-.815c-1.728,0-2.891,2.026-2.891,3.886,0,1.379.575,2.339,1.907,2.339a2.4,2.4,0,0,0,1.583-.684l0.5,0.72a3.5,3.5,0,0,1-2.29.923C84.945,141.584,83.9,140.313,83.9,138.382Z"/>
<path clip-path="url(#triangle)" class="cls-8" d="M92.48,139.953a2.873,2.873,0,0,1,.084-0.672l1.164-5.469H91.846l0.191-.875H95l-1.355,6.428a2.226,2.226,0,0,0-.061.5,0.731,0.731,0,0,0,.828.792,2.408,2.408,0,0,0,1.115-.3l0.252,0.839a3.7,3.7,0,0,1-1.68.384A1.508,1.508,0,0,1,92.48,139.953Z"/>
<path clip-path="url(#triangle)" class="cls-8" d="M99.9,140.062a2.718,2.718,0,0,1,.1-0.66l0.671-2.938H98.578l0.18-.888h3.19l-0.876,3.91a2.184,2.184,0,0,0-.048.36,0.744,0.744,0,0,0,.852.815,2.6,2.6,0,0,0,1.067-.288l0.252,0.84a3.732,3.732,0,0,1-1.644.371A1.474,1.474,0,0,1,99.9,140.062Zm0.84-6.356a0.93,0.93,0,0,1,.924-0.912,0.7,0.7,0,0,1,.779.72,0.921,0.921,0,0,1-.924.911A0.708,0.708,0,0,1,100.736,133.705Z"/>
<path clip-path="url(#triangle)" class="cls-8" d="M105.382,139.006a3.524,3.524,0,0,1,3.551-3.574,2.766,2.766,0,0,1,2.219,1.056l-0.7.623a2.011,2.011,0,0,0-1.643-.755,2.514,2.514,0,0,0-2.315,2.53,1.634,1.634,0,0,0,1.764,1.775,2.684,2.684,0,0,0,1.763-.768l0.432,0.755a3.469,3.469,0,0,1-2.339.936A2.477,2.477,0,0,1,105.382,139.006Z"/>
<path clip-path="url(#triangle)" class="cls-8" d="M114.01,132.938h1.1L114,138.514h0.049l3.525-2.938h1.319l-2.734,2.363,1.8,3.5H116.8l-1.427-2.843-1.667,1.344-0.3,1.5h-1.1Z"/>
<path clip-path="url(#triangle)" class="cls-8" d="M128.278,132.938h1.1L128.77,135.9l-0.2.8h0.049a3.643,3.643,0,0,1,2.482-1.271,1.344,1.344,0,0,1,1.511,1.476,4.9,4.9,0,0,1-.107.936l-0.72,3.6h-1.115l0.7-3.466a3.832,3.832,0,0,0,.107-0.768,0.746,0.746,0,0,0-.839-0.815,3.17,3.17,0,0,0-2.207,1.319l-0.743,3.729h-1.1Z"/>
<path clip-path="url(#triangle)" class="cls-8" d="M134.111,139.029a3.449,3.449,0,0,1,3.357-3.6,2.122,2.122,0,0,1,2.268,2.267,4.113,4.113,0,0,1-.168,1.1H135.2v0.18a1.565,1.565,0,0,0,1.667,1.739,3.145,3.145,0,0,0,1.932-.731l0.4,0.743a4.237,4.237,0,0,1-2.566.852A2.324,2.324,0,0,1,134.111,139.029Zm1.247-1.043h3.322a3.016,3.016,0,0,0,.023-0.324,1.217,1.217,0,0,0-1.283-1.354A2.324,2.324,0,0,0,135.358,137.986Z"/>
<path clip-path="url(#triangle)" class="cls-8" d="M142.858,135.575h0.9l-0.228,1.655h0.048a3.394,3.394,0,0,1,2.566-1.8,2.1,2.1,0,0,1,1.176.288l-0.42.959a1.687,1.687,0,0,0-.96-0.239c-0.863,0-1.787.827-2.555,2.074L142.8,141.44h-1.1Z"/>
<path clip-path="url(#triangle)" class="cls-8" d="M148.512,139.029a3.449,3.449,0,0,1,3.357-3.6,2.122,2.122,0,0,1,2.268,2.267,4.113,4.113,0,0,1-.168,1.1H149.6v0.18a1.565,1.565,0,0,0,1.667,1.739,3.145,3.145,0,0,0,1.932-.731l0.4,0.743a4.237,4.237,0,0,1-2.566.852A2.324,2.324,0,0,1,148.512,139.029Zm1.247-1.043h3.322a3.016,3.016,0,0,0,.023-0.324,1.217,1.217,0,0,0-1.283-1.354A2.324,2.324,0,0,0,149.759,137.986Z"/>
<path clip-path="url(#triangle)" class="cls-8" d="M164.063,139.881a3.6,3.6,0,0,1,.1-0.768l0.54-2.65h-1.655l0.155-.827,1.728-.061,0.527-1.858h0.912l-0.384,1.858h2.782l-0.18.888H165.79l-0.552,2.663a2.2,2.2,0,0,0-.06.516,0.912,0.912,0,0,0,1.02,1.02,2.874,2.874,0,0,0,1.463-.42l0.348,0.791a4.029,4.029,0,0,1-2.11.552A1.589,1.589,0,0,1,164.063,139.881Z"/>
<path clip-path="url(#triangle)" class="cls-8" d="M169.92,139.006a3.478,3.478,0,0,1,3.382-3.574,2.372,2.372,0,0,1,2.5,2.579,3.47,3.47,0,0,1-3.382,3.573A2.371,2.371,0,0,1,169.92,139.006Zm4.749-.936a1.469,1.469,0,0,0-1.451-1.715,2.445,2.445,0,0,0-2.183,2.59,1.478,1.478,0,0,0,1.464,1.716A2.429,2.429,0,0,0,174.669,138.07Z"/>
<path clip-path="url(#triangle)" class="cls-8" d="M184.584,139.006a3.524,3.524,0,0,1,3.551-3.574,2.766,2.766,0,0,1,2.219,1.056l-0.7.623a2.011,2.011,0,0,0-1.643-.755,2.514,2.514,0,0,0-2.315,2.53,1.634,1.634,0,0,0,1.764,1.775,2.684,2.684,0,0,0,1.763-.768l0.432,0.755a3.469,3.469,0,0,1-2.339.936A2.477,2.477,0,0,1,184.584,139.006Z"/>
<path clip-path="url(#triangle)" class="cls-8" d="M191.521,139.006a3.478,3.478,0,0,1,3.382-3.574,2.372,2.372,0,0,1,2.5,2.579,3.469,3.469,0,0,1-3.382,3.573A2.371,2.371,0,0,1,191.521,139.006Zm4.749-.936a1.469,1.469,0,0,0-1.451-1.715,2.445,2.445,0,0,0-2.183,2.59,1.478,1.478,0,0,0,1.464,1.716A2.429,2.429,0,0,0,196.27,138.07Z"/>
<path clip-path="url(#triangle)" class="cls-8" d="M199.74,135.575h0.9l-0.132,1.151h0.048a3.783,3.783,0,0,1,2.543-1.295,1.344,1.344,0,0,1,1.511,1.476,4.9,4.9,0,0,1-.107.936l-0.72,3.6h-1.115l0.7-3.466a3.832,3.832,0,0,0,.107-0.768,0.746,0.746,0,0,0-.839-0.815,3.17,3.17,0,0,0-2.207,1.319l-0.743,3.729h-1.1Z"/>
<path clip-path="url(#triangle)" class="cls-8" d="M207.265,139.881a3.6,3.6,0,0,1,.1-0.768l0.54-2.65h-1.655l0.155-.827,1.728-.061,0.527-1.858h0.912l-0.384,1.858h2.782l-0.18.888h-2.795l-0.552,2.663a2.2,2.2,0,0,0-.06.516,0.912,0.912,0,0,0,1.02,1.02,2.874,2.874,0,0,0,1.463-.42l0.348,0.791a4.029,4.029,0,0,1-2.11.552A1.589,1.589,0,0,1,207.265,139.881Z"/>
<path clip-path="url(#triangle)" class="cls-8" d="M213.182,139.33c0-2.111,1.438-3.9,3.2-3.9a1.923,1.923,0,0,1,1.738.863h0.048l0.24-.72H219.3l-1.176,5.865h-0.9l0.072-.863h-0.048a3.052,3.052,0,0,1-2.087,1.007A1.95,1.95,0,0,1,213.182,139.33Zm4.209,0.264,0.516-2.447a1.6,1.6,0,0,0-1.367-.791c-1.235,0-2.219,1.319-2.219,2.818,0,1.031.468,1.487,1.212,1.487A2.6,2.6,0,0,0,217.391,139.594Z"/>
<path clip-path="url(#triangle)" class="cls-8" d="M220.585,139.006a3.524,3.524,0,0,1,3.551-3.574,2.766,2.766,0,0,1,2.219,1.056l-0.7.623a2.011,2.011,0,0,0-1.643-.755,2.514,2.514,0,0,0-2.315,2.53,1.634,1.634,0,0,0,1.764,1.775,2.684,2.684,0,0,0,1.763-.768l0.432,0.755a3.469,3.469,0,0,1-2.339.936A2.477,2.477,0,0,1,220.585,139.006Z"/>
<path clip-path="url(#triangle)" class="cls-8" d="M228.865,139.881a3.6,3.6,0,0,1,.1-0.768l0.539-2.65h-1.654l0.155-.827,1.728-.061,0.527-1.858h0.912l-0.384,1.858h2.782l-0.18.888h-2.795l-0.552,2.663a2.2,2.2,0,0,0-.06.516,0.912,0.912,0,0,0,1.02,1.02,2.874,2.874,0,0,0,1.463-.42l0.348,0.791a4.029,4.029,0,0,1-2.11.552A1.589,1.589,0,0,1,228.865,139.881Z"/>
<path clip-path="url(#triangle)" class="cls-8" d="M242.51,135.575h0.827l-0.06.792h0.036a2.018,2.018,0,0,1,1.571-.936,0.813,0.813,0,0,1,.863.924,2.079,2.079,0,0,1,1.607-.924,0.88,0.88,0,0,1,.923,1.031,2.636,2.636,0,0,1-.072.647l-0.875,4.33h-1.067l0.84-4.162a1.9,1.9,0,0,0,.048-0.407c0-.348-0.132-0.492-0.372-0.492a1.489,1.489,0,0,0-1.092.876l-0.852,4.186h-1l0.863-4.162a1.745,1.745,0,0,0,.036-0.407c0-.348-0.144-0.492-0.372-0.492a1.518,1.518,0,0,0-1.139.876l-0.815,4.186h-1.067Z"/>
<path clip-path="url(#triangle)" class="cls-8" d="M249.314,139.029a3.449,3.449,0,0,1,3.357-3.6,2.122,2.122,0,0,1,2.268,2.267,4.113,4.113,0,0,1-.168,1.1h-4.366v0.18a1.565,1.565,0,0,0,1.667,1.739,3.145,3.145,0,0,0,1.932-.731l0.4,0.743a4.237,4.237,0,0,1-2.566.852A2.324,2.324,0,0,1,249.314,139.029Zm1.247-1.043h3.322a3.016,3.016,0,0,0,.023-0.324,1.217,1.217,0,0,0-1.283-1.354A2.324,2.324,0,0,0,250.562,137.986Z"/>
<path clip-path="url(#triangle)" class="cls-2" d="M69.405,155.072l0.527-.768a4.172,4.172,0,0,0,2.5.768c0.9,0,1.331-.359,1.331-0.8,0-.42-0.24-0.672-1.715-0.983-1.548-.324-2.279-0.852-2.279-1.739,0-.983.876-1.715,2.507-1.715a4.484,4.484,0,0,1,2.4.768l-0.552.744a3.546,3.546,0,0,0-1.954-.6c-0.888,0-1.212.336-1.212,0.744,0,0.456.468,0.647,1.607,0.888,1.919,0.42,2.4.911,2.4,1.822,0,0.984-.959,1.787-2.687,1.787A5.181,5.181,0,0,1,69.405,155.072Z"/>
<path clip-path="url(#triangle)" class="cls-2" d="M78.177,153.525v-2.591H76.569v-0.9l1.655-.061,0.155-1.858h0.984v1.858h2.771v0.96H79.364v2.591a1.24,1.24,0,0,0,1.415,1.5,3.611,3.611,0,0,0,1.343-.252l0.24,0.876a5.488,5.488,0,0,1-1.859.335C78.764,155.983,78.177,154.988,78.177,153.525Z"/>
<path clip-path="url(#triangle)" class="cls-2" d="M83.781,152.9a2.963,2.963,0,0,1,3-3.07,2.545,2.545,0,0,1,2.7,2.771,4.557,4.557,0,0,1-.048.647H84.969a1.948,1.948,0,0,0,2.146,1.8,3.12,3.12,0,0,0,1.7-.516l0.42,0.756a4.137,4.137,0,0,1-2.278.7A2.97,2.97,0,0,1,83.781,152.9Zm1.212-.527h3.418a1.525,1.525,0,0,0-1.6-1.607A1.805,1.805,0,0,0,84.993,152.374Z"/>
<path clip-path="url(#triangle)" class="cls-2" d="M90.754,149.975h1.2l1.235,3.19c0.228,0.588.42,1.164,0.624,1.739H93.86c0.2-.575.384-1.151,0.611-1.739l1.235-3.19h1.14L94.5,155.84H93.152Z"/>
<path clip-path="url(#triangle)" class="cls-2" d="M98.182,152.9a2.963,2.963,0,0,1,3-3.07,2.545,2.545,0,0,1,2.7,2.771,4.557,4.557,0,0,1-.048.647H99.369a1.948,1.948,0,0,0,2.146,1.8,3.12,3.12,0,0,0,1.7-.516l0.42,0.756a4.137,4.137,0,0,1-2.278.7A2.97,2.97,0,0,1,98.182,152.9Zm1.212-.527h3.418a1.525,1.525,0,0,0-1.6-1.607A1.805,1.805,0,0,0,99.394,152.374Z"/>
<path clip-path="url(#triangle)" class="cls-2" d="M105.658,149.975h0.972l0.1,0.948h0.048a2.947,2.947,0,0,1,2.159-1.092c1.367,0,1.99.852,1.99,2.375v3.634h-1.187v-3.479c0-1.019-.335-1.5-1.223-1.5a2.273,2.273,0,0,0-1.667.936v4.042h-1.187v-5.865Z"/>
<path clip-path="url(#triangle)" class="cls-3" d="M114.321,154.868a1.08,1.08,0,1,1,1.079,1.115A1.069,1.069,0,0,1,114.321,154.868Z"/>
<path clip-path="url(#triangle)" class="cls-6" d="M119.746,151.93c0-2.555,1.512-4.09,3.574-4.09a3.068,3.068,0,0,1,2.207.972l-0.672.756a2.026,2.026,0,0,0-1.535-.684c-1.4,0-2.339,1.151-2.339,3.01,0,1.884.936,3.047,2.363,3.047a2.16,2.16,0,0,0,1.679-.827l0.672,0.731a3.094,3.094,0,0,1-2.471,1.139C121.281,155.983,119.746,154.509,119.746,151.93Z"/>
<path clip-path="url(#triangle)" class="cls-6" d="M126.875,152.913a2.93,2.93,0,1,1,2.926,3.07A2.9,2.9,0,0,1,126.875,152.913Zm4.629,0c0-1.259-.659-2.1-1.7-2.1s-1.7.84-1.7,2.1,0.66,2.1,1.7,2.1S131.5,154.173,131.5,152.913Z"/>
<path clip-path="url(#triangle)" class="cls-6" d="M134.459,149.975h0.972l0.1,0.948h0.048a2.947,2.947,0,0,1,2.159-1.092c1.367,0,1.99.852,1.99,2.375v3.634h-1.187v-3.479c0-1.019-.335-1.5-1.223-1.5a2.273,2.273,0,0,0-1.667.936v4.042h-1.187v-5.865Z"/>
<path clip-path="url(#triangle)" class="cls-6" d="M142.979,153.525v-2.591h-1.607v-0.9l1.655-.061,0.155-1.858h0.984v1.858h2.77v0.96h-2.77v2.591a1.24,1.24,0,0,0,1.415,1.5,3.611,3.611,0,0,0,1.343-.252l0.24,0.876a5.488,5.488,0,0,1-1.859.335C143.565,155.983,142.979,154.988,142.979,153.525Z"/>
<path clip-path="url(#triangle)" class="cls-6" d="M148.715,154.293c0-1.319,1.188-1.955,4.138-2.183a1.281,1.281,0,0,0-1.463-1.308,4.1,4.1,0,0,0-1.991.659l-0.443-.8a5.287,5.287,0,0,1,2.639-.827,2.228,2.228,0,0,1,2.446,2.482v3.526h-0.972l-0.1-.756h-0.036a3.887,3.887,0,0,1-2.242.9A1.771,1.771,0,0,1,148.715,154.293Zm4.138-.036v-1.392c-2.3.18-2.986,0.636-2.986,1.344a0.956,0.956,0,0,0,1.164.827A2.916,2.916,0,0,0,152.853,154.257Z"/>
<path clip-path="url(#triangle)" class="cls-6" d="M155.915,152.913a3.068,3.068,0,0,1,3.3-3.082,3.024,3.024,0,0,1,2.158.84l-0.575.755a2.344,2.344,0,0,0-1.523-.611,2.012,2.012,0,0,0-2.135,2.1,1.99,1.99,0,0,0,2.1,2.1,2.707,2.707,0,0,0,1.739-.7l0.516,0.768a3.593,3.593,0,0,1-2.351.9A2.975,2.975,0,0,1,155.915,152.913Z"/>
<path clip-path="url(#triangle)" class="cls-6" d="M164.579,153.525v-2.591h-1.607v-0.9l1.655-.061,0.155-1.858h0.984v1.858h2.771v0.96h-2.771v2.591a1.24,1.24,0,0,0,1.415,1.5,3.611,3.611,0,0,0,1.343-.252l0.24,0.876a5.488,5.488,0,0,1-1.859.335C165.166,155.983,164.579,154.988,164.579,153.525Z"/>
<path clip-path="url(#triangle)" class="cls-6" d="M170.22,147.984h1.392l1.02,3.2,0.348,1.224h0.048l0.348-1.224,1.02-3.2h1.392v7.855h-1.1V152.3c0-.8.132-2.291,0.191-3.011h-0.036l-0.491,1.691-1,2.771h-0.744l-0.983-2.771-0.479-1.691h-0.036c0.084,0.72.191,2.207,0.191,3.011v3.538H170.22v-7.855Z"/>
<path clip-path="url(#triangle)" class="cls-6" d="M177.384,152.9a2.963,2.963,0,0,1,3-3.07,2.545,2.545,0,0,1,2.7,2.771,4.557,4.557,0,0,1-.048.647h-4.462a1.948,1.948,0,0,0,2.146,1.8,3.12,3.12,0,0,0,1.7-.516l0.42,0.756a4.137,4.137,0,0,1-2.278.7A2.97,2.97,0,0,1,177.384,152.9Zm1.212-.527h3.418a1.525,1.525,0,0,0-1.6-1.607A1.805,1.805,0,0,0,178.6,152.374Z"/>
<path clip-path="url(#triangle)" class="cls-3" d="M186.216,152.506a6.746,6.746,0,0,1,2.65-5.445l0.659,0.563a6.368,6.368,0,0,0,0,9.763l-0.659.564A6.746,6.746,0,0,1,186.216,152.506Z"/>
<path clip-path="url(#triangle)" class="cls-3" d="M192.48,157.387a6.368,6.368,0,0,0,0-9.763l0.659-.563a6.919,6.919,0,0,1,0,10.891Z"/>
<path clip-path="url(#triangle)" class="cls-3" d="M200.52,157.675a2.078,2.078,0,0,0,1.523-1.907,0.971,0.971,0,0,1-.191.013,0.95,0.95,0,0,1-1.032-.983,0.98,0.98,0,0,1,1.056-1c0.768,0,1.176.636,1.176,1.667a2.978,2.978,0,0,1-2.207,2.938Zm0.2-6.992A1.08,1.08,0,1,1,201.8,151.8,1.069,1.069,0,0,1,200.724,150.683Z"/>
<path clip-path="url(#triangle)" class="cls-3" d="M41,185.8h0.588c1.163,0,1.427-.275,1.427-1.031,0-.707-0.071-1.319-0.071-2.11a1.143,1.143,0,0,1,1.115-1.332v-0.048a1.141,1.141,0,0,1-1.115-1.331c0-.731.071-1.439,0.071-2.11,0-.756-0.264-1.032-1.427-1.032H41v-0.659h0.779c1.523,0,2.219.372,2.219,1.631,0,0.828-.107,1.487-0.107,2.243,0,0.455.324,0.911,1.715,0.923v0.72c-1.391.013-1.715,0.468-1.715,0.924,0,0.8.107,1.379,0.107,2.243,0,1.259-.7,1.631-2.219,1.631H41V185.8Z"/>
<path clip-path="url(#triangle)" class="cls-3" d="M48.477,186.187a6.368,6.368,0,0,0,0-9.763l0.659-.563a6.918,6.918,0,0,1,0,10.89Z"/>
<path clip-path="url(#triangle)" class="cls-3" d="M56.516,186.475a2.078,2.078,0,0,0,1.523-1.907,0.971,0.971,0,0,1-.191.013,0.95,0.95,0,0,1-1.032-.983,0.98,0.98,0,0,1,1.056-1c0.768,0,1.176.636,1.176,1.667a2.978,2.978,0,0,1-2.207,2.938Zm0.2-6.992A1.08,1.08,0,1,1,57.8,180.6,1.069,1.069,0,0,1,56.72,179.482Z"/>
<path clip-path="url(#triangle)" class="cls-3" d="M12.2,200.2h0.588c1.163,0,1.427-.275,1.427-1.031,0-.707-0.071-1.319-0.071-2.11a1.143,1.143,0,0,1,1.115-1.332v-0.048a1.141,1.141,0,0,1-1.115-1.331c0-.731.071-1.439,0.071-2.11,0-.756-0.264-1.032-1.427-1.032H12.2v-0.659h0.779c1.523,0,2.219.372,2.219,1.631,0,0.828-.107,1.487-0.107,2.243,0,0.455.324,0.911,1.715,0.923v0.72c-1.391.013-1.715,0.468-1.715,0.924,0,0.8.107,1.379,0.107,2.243,0,1.259-.7,1.631-2.219,1.631H12.2V200.2Z"/>
<path clip-path="url(#triangle)" class="cls-3" d="M19.676,200.587a6.368,6.368,0,0,0,0-9.763l0.659-.563a6.918,6.918,0,0,1,0,10.89Z"/>
<path clip-path="url(#triangle)" class="cls-3" d="M27.715,200.875a2.078,2.078,0,0,0,1.523-1.907,0.971,0.971,0,0,1-.191.013A0.95,0.95,0,0,1,28.015,198a0.98,0.98,0,0,1,1.056-1c0.768,0,1.176.636,1.176,1.667a2.978,2.978,0,0,1-2.207,2.938Zm0.2-6.992A1.08,1.08,0,1,1,29,195,1.069,1.069,0,0,1,27.919,193.883Z"/><rect class="cls-8" x="10.75" y="86.332" width="0.5" height="103.235"/><rect class="cls-8" x="40.774" y="114.279" width="0.5" height="59.67"/></svg>
