<svg id="Layer_1" data-name="Layer 1" xmlns="http://www.w3.org/2000/svg" viewBox="0 0 120 117.037"><defs><style>.cls-1{fill:#181616;fill-rule:evenodd;}</style></defs><title>github-mark-small</title><path class="cls-1" d="M60,1.482A60.006,60.006,0,0,0,41.035,118.415c3,0.55,4.1-1.3,4.1-2.892,0-1.424-.052-5.2-0.081-10.2-16.69,3.626-20.212-8.043-20.212-8.043-2.728-6.931-6.662-8.777-6.662-8.777-5.448-3.723.412-3.647,0.412-3.647,6.021,0.424,9.19,6.183,9.19,6.183C33.13,100.2,41.821,97.556,45.24,96.02c0.545-3.877,2.1-6.521,3.809-8.021-13.323-1.514-27.33-6.662-27.33-29.654a23.192,23.192,0,0,1,6.176-16.1c-0.617-1.518-2.676-7.618.588-15.879,0,0,5.038-1.613,16.5,6.151a56.871,56.871,0,0,1,30.042,0c11.455-7.764,16.483-6.151,16.483-6.151,3.273,8.261,1.214,14.361.6,15.879a23.153,23.153,0,0,1,6.167,16.1c0,23.05-14.028,28.122-27.395,29.607,2.154,1.852,4.073,5.514,4.073,11.111,0,8.021-.074,14.492-0.074,16.46,0,1.6,1.081,3.471,4.126,2.885A60.009,60.009,0,0,0,60,1.482Z" transform="translate(0 -1.482)"/></svg>