<svg id="Layer_1" data-name="Layer 1" xmlns="http://www.w3.org/2000/svg" viewBox="0 0 216 216"><defs><style>.cls-1{fill:#007bb6;}.cls-2{fill:#fff;}</style></defs><title>LinkedIn-Bug</title><path class="cls-1" d="M200,0H15.943A15.767,15.767,0,0,0,0,15.563V200.414A15.776,15.776,0,0,0,15.943,216H200a15.818,15.818,0,0,0,16-15.586V15.563A15.809,15.809,0,0,0,200,0Z" transform="translate(0.001)"/><path class="cls-2" d="M32.009,80.984H64.06V184.063H32.009V80.984ZM48.036,29.738a18.576,18.576,0,1,1-18.57,18.57,18.582,18.582,0,0,1,18.57-18.57" transform="translate(0.001)"/><path class="cls-2" d="M84.153,80.984h30.734V95.063h0.438c4.277-8.1,14.73-16.648,30.317-16.648,32.418,0,38.406,21.344,38.406,49.109v56.539h-32V133.938c0-11.961-.234-27.336-16.652-27.336-16.672,0-19.215,13.023-19.215,26.469v50.992H84.153V80.984Z" transform="translate(0.001)"/></svg>