<svg id="Layer_1" data-name="Layer 1" xmlns="http://www.w3.org/2000/svg" viewBox="0 0 540 210"><defs><style>.cls-1{fill:#cb3837;}.cls-2{fill:#fff;}</style></defs><title>Npm-logo</title><path class="cls-1" d="M0,0H540V180H270v30H150V180H0V0ZM30,150H90V60h30v90h30V30H30V150ZM180,30V180h60V150h60V30H180Zm60,30h30v60H240V60Zm90-30V150h60V60h30v90h30V60h30v90h30V30H330Z"/><polygon class="cls-2" points="30 150 90 150 90 60 120 60 120 150 150 150 150 30 30 30 30 150"/><path class="cls-2" d="M180,30V180h60V150h60V30H180Zm90,90H240V60h30v60Z"/><polygon class="cls-2" points="330 30 330 150 390 150 390 60 420 60 420 150 450 150 450 60 480 60 480 150 510 150 510 30 330 30"/></svg>