
<svg id="white_logo" xmlns="http://www.w3.org/2000/svg" viewBox="0 0 237.887 257.273" fill="#fff"><path  d="M224.582,101.793a72.276,72.276,0,0,1,10.936-4.986,77.863,77.863,0,0,1,9.135-2.661l-15.629-.023q-0.159.379-.316,0.759l-0.054.131-0.072.122-0.138.234-0.25.425c-0.284.489-.561,0.981-0.838,1.474-0.618,1.1-1.257,2.234-1.973,3.333Q224.992,101.2,224.582,101.793Z" transform="translate(-31.057 -22.363)"/><path  d="M199.073,127.207l0.042-.083,0.049-.079,0.168-.266c0.1-.157.2-0.314,0.293-0.475q1.653-2.854,3.564-5.507-0.963.55-1.946,1.074a72.724,72.724,0,0,1-14.661,5.881c-0.421.117-.82,0.215-1.228,0.322l13.269,0.022C198.772,127.8,198.924,127.5,199.073,127.207Z" transform="translate(-31.057 -22.363)"/><path  d="M95.11,276.535a38.064,38.064,0,0,1-2.776-3.27,80.577,80.577,0,0,1-7.35-11.95c-2.01-3.852-3.784-7.814-5.542-11.785-0.767-1.732-1.717-3.382-2.585-5.068-0.106-.207-0.216-0.411-0.324-0.617-0.152-.211-0.313-0.415-0.456-0.632a42.292,42.292,0,0,0-19.424-16.13,40.713,40.713,0,0,0-14.328-3.194q-0.7-.026-1.4-0.025c-1.666,0-3.335.1-5,.189a29.138,29.138,0,0,0-3.4.486,1.708,1.708,0,0,0-1.464,1.518,3.169,3.169,0,0,0,.118,1A79.061,79.061,0,0,0,39.168,248a59.189,59.189,0,0,0,13.524,16.356,63.279,63.279,0,0,0,26.724,13.007,81.566,81.566,0,0,0,9.767,1.66c1.758,0.19,3.529.259,5.294,0.382a1.124,1.124,0,0,1,.136-0.077A1.723,1.723,0,0,0,95.11,276.535Z" transform="translate(-31.057 -22.363)"/><path  d="M159.117,131.2a62.8,62.8,0,0,0-9.232-17.643,43.957,43.957,0,0,0-15.8-13.086,60.893,60.893,0,0,0-16.314-5.192c-2.894-.51-5.816-0.885-8.738-1.21-1.989-.221-4-0.248-6-0.362-0.133.079-.271,0.151-0.4,0.239a1.728,1.728,0,0,0-.3,2.7,7.308,7.308,0,0,0,.956.8,49.216,49.216,0,0,1,9.684,9.36,44.831,44.831,0,0,1,6.648,11.966,36.472,36.472,0,0,0,5.632,10.207,1.412,1.412,0,0,1,.114.2c1.017,1.08,1.968,2.233,3.063,3.227q10.444,9.489,23.533,9.471a40.246,40.246,0,0,0,7.851-.8,1.779,1.779,0,0,0,1.55-2.571C160.642,136.06,159.952,133.6,159.117,131.2Z" transform="translate(-31.057 -22.363)"/><path  d="M102.21,279.542c1.432-.038,2.865-0.052,4.295-0.119a87.56,87.56,0,0,0,14.469-1.912,61.972,61.972,0,0,0,15.847-5.649A56.987,56.987,0,0,0,153.017,259a53.7,53.7,0,0,0,12.229-23.631,65.082,65.082,0,0,0,1.592-11.67,58.151,58.151,0,0,0-.723-13,44.2,44.2,0,0,0-7.239-17.563,44.858,44.858,0,0,0-13.041-12.759,82.628,82.628,0,0,0-11.345-5.938,172.373,172.373,0,0,0-21.156-7.374A176.958,176.958,0,0,1,96.2,161.44a68.9,68.9,0,0,1-13.4-6.869,29.476,29.476,0,0,1-7.693-7.259,16.4,16.4,0,0,1-3.174-8.93,38.316,38.316,0,0,1,.292-6.4c0.136-1.054.34-2.1,0.514-3.148,0.307-1.421.548-2.859,0.93-4.259A50.218,50.218,0,0,1,85.8,103.21a63.33,63.33,0,0,1,6.862-6.248,1.726,1.726,0,0,0,.578-2.449,4.574,4.574,0,0,0-.928-0.8c-0.195,0-.391-0.015-0.585-0.015-0.091,0-.183,0-0.273.011-2.592.242-5.191,0.434-7.774,0.754A66.61,66.61,0,0,0,69.569,97.8a48.788,48.788,0,0,0-32.63,39.257,66.509,66.509,0,0,0-.821,8.548,56.045,56.045,0,0,0,.474,10.052,35.6,35.6,0,0,0,7.293,16.964,75.136,75.136,0,0,0,7.936,8.4,42.084,42.084,0,0,0,8.594,6.345c2.145,1.179,4.317,2.314,6.522,3.376,5.8,2.794,11.767,5.2,17.74,7.593,9.31,3.726,18.643,7.391,27.942,11.144a31.077,31.077,0,0,1,11.108,7.4,15.559,15.559,0,0,1,4.016,7.05,16.978,16.978,0,0,1,.262,4.9,45.811,45.811,0,0,1-2.156,11.642c-0.391,1.238-.871,2.448-1.31,3.67-0.652,1.558-1.252,3.14-1.965,4.669A86.2,86.2,0,0,1,112.3,265.271a101.955,101.955,0,0,1-9.411,10.537c-0.428.416-.849,0.838-1.269,1.261a1.471,1.471,0,0,0,.04,2.046A5.369,5.369,0,0,0,102.21,279.542Z" transform="translate(-31.057 -22.363)"/><path  d="M94.994,93.566a3.693,3.693,0,0,1-1.088,4.961,61.051,61.051,0,0,0-6.647,6.05A48.492,48.492,0,0,0,75.6,125.106c-0.243.891-.427,1.806-0.621,2.774-0.049.245-.1,0.49-0.151,0.736,1.321-.142,2.643-0.282,3.968-0.381,3.683-.273,7.367-0.57,11.056-0.706,3.641-.134,7.288-0.095,10.933-0.105,1.561,0,3.125.014,4.683,0.1,3.195,0.169,6.389.352,9.579,0.6,2.385,0.183,4.762.469,7.142,0.714,0.161,0.017.321,0.036,0.482,0.053a39.165,39.165,0,0,1-4.928-9.419,43.008,43.008,0,0,0-6.353-11.435,46.864,46.864,0,0,0-9.3-8.979,9.175,9.175,0,0,1-1.213-1.026,3.775,3.775,0,0,1-1.051-2.985,3.671,3.671,0,0,1,.451-1.39C98.52,93.615,96.757,93.582,94.994,93.566Z" transform="translate(-31.057 -22.363)"/><path  d="M79.718,250.151c-0.092-.207-0.185-0.414-0.277-0.622-0.767-1.732-1.717-3.382-2.585-5.068-0.106-.207-0.216-0.411-0.324-0.617h0S77.828,246.412,79.718,250.151Z" transform="translate(-31.057 -22.363)"/><path  d="M100.2,275.661c0.429-.432.859-0.863,1.3-1.287a100.464,100.464,0,0,0,9.226-10.331A83.839,83.839,0,0,0,120.76,247.96c0.467-1,.881-2.021,1.32-3.1,0.061-.149.123-0.3,0.184-0.448-2.836.292-5.669,0.63-8.511,0.839-2.593.191-5.2,0.281-7.8,0.325-3.019.051-6.043,0.08-9.06-.021-3.4-.113-6.805-0.355-10.2-0.593-1.815-.127-3.624-0.354-5.434-0.554-0.772-.085-1.543-0.183-2.315-0.276,0.167,0.318.333,0.636,0.5,0.953,0.622,1.167,1.266,2.374,1.824,3.635,1.778,4.016,3.536,7.931,5.487,11.67a78.984,78.984,0,0,0,7.164,11.657,35.656,35.656,0,0,0,2.629,3.1,3.81,3.81,0,0,1,.981,3.452,3.646,3.646,0,0,1-.382.985c0.811,0.026,1.621.048,2.432,0.054h0.031A3.424,3.424,0,0,1,100.2,275.661Z" transform="translate(-31.057 -22.363)"/><path  d="M246.149,135.1a32.121,32.121,0,0,1,7.017-4.656,23.483,23.483,0,0,1,7.822-2.321,1.723,1.723,0,0,0,1.684-1.873c0-.078,0-0.156,0-0.235q0-14.9,0-29.8a4.14,4.14,0,0,0-.013-0.547,1.684,1.684,0,0,0-1.694-1.523q-0.206,0-.413,0c-0.592,0-1.183.018-1.775,0.025-0.956.087-1.911,0.182-2.867,0.259A75.937,75.937,0,0,0,236.2,98.688a67.076,67.076,0,0,0-23.367,14.155,62.7,62.7,0,0,0-11.474,14.464c-0.156.27-.329,0.531-0.494,0.8-0.768,1.536-1.581,3.052-2.3,4.612a73.373,73.373,0,0,0-6.623,30.853q-0.091,56.43-.023,112.861c0,0.209-.01.418,0,0.626a1.632,1.632,0,0,0,1.473,1.566,2.8,2.8,0,0,0,.358.018h0.188q4.733,0,9.467.006,4.3,0,8.6-.023a18.728,18.728,0,0,0,18.7-18.812q-0.064-47.123-.017-94.246a29.923,29.923,0,0,1,1.263-8.784A46.063,46.063,0,0,1,246.149,135.1Z" transform="translate(-31.057 -22.363)"/><path  d="M267.583,27.823a90.223,90.223,0,0,0-27.861-5.416q-1.281-.044-2.561-0.044a65.915,65.915,0,0,0-8.9.586,46.606,46.606,0,0,0-10.728,2.693A37.176,37.176,0,0,0,200.343,38.8a48.73,48.73,0,0,0-6.607,14.345,51.092,51.092,0,0,0-1.72,12.893c-0.1,2.524-.115,5.052-0.129,7.578A17.739,17.739,0,0,1,188.1,84.565a24.85,24.85,0,0,1-8.542,6.945,26.725,26.725,0,0,1-7.135,2.471,1.917,1.917,0,0,0-1.715,2.078q0,15.015,0,30.03a1.743,1.743,0,0,0,2.01,1.96h0.043c1.732-.182,3.466-0.343,5.195-0.549a53.945,53.945,0,0,0,8.092-1.673,70.4,70.4,0,0,0,14.256-5.719,69.655,69.655,0,0,0,13.649-9.461,55.648,55.648,0,0,0,9.757-11.137c0.993-1.525,1.842-3.144,2.758-4.72,0.13-.224.263-0.446,0.395-0.669,0.447-1.082.91-2.157,1.337-3.247a37.628,37.628,0,0,0,2.525-12.1c0.072-1.586.092-3.176,0.209-4.758a16.947,16.947,0,0,1,1.448-5.647,23.253,23.253,0,0,1,3.289-5.02,13.139,13.139,0,0,1,4.652-3.612,15.366,15.366,0,0,1,6.36-1.388,21.543,21.543,0,0,0,3.034-.232,21.131,21.131,0,0,0,12.919-7.3,20.077,20.077,0,0,0,4.612-10.1q0.826-5.324,1.657-10.646A1.788,1.788,0,0,0,267.583,27.823Z" transform="translate(-31.057 -22.363)"/></svg>
