<svg xmlns="http://www.w3.org/2000/svg" viewBox="0 0 300 300">
<g><path fill="#03F443" d="M172.758,128.049c1.732-0.182,53.97-33.707,54.102-33.93c0.988,0.004,31.423,0.042,31.917,0.054
c-0.956,0.087-57.751,33.665-57.915,33.929C200.523,128.096,173.486,128.06,172.758,128.049z"/><path fill="#F5D800" d="M103.03,93.704c-0.083,0.049,17.72,18.88,17.72,18.88l4.501,16.394c0.048,0.06,0.076,0.135,0.114,0.202
c-1.058-0.117-2.116-0.24-3.175-0.349c-2.38-0.245-4.757-0.531-7.142-0.714c-3.189-0.245-6.384-0.428-9.579-0.597
c-1.559-0.082-3.122-0.101-4.683-0.096c-3.645,0.011-7.292-0.029-10.933,0.105c-3.689,0.136-7.373,0.432-11.056,0.706
c-2.022,0.15-4.037,0.398-6.055,0.602c0.306-1.42,0.548-2.859,0.93-4.258c2.227-8.15,18.956-30.601,18.641-30.863
c0.878-0.053,1.756-0.158,2.634-0.15C97.642,93.589,100.336,93.654,103.03,93.704z"/><path fill="#F5D800" d="M94.477,279.406c0.045-0.026,0.088-0.058,0.136-0.077c-0.136,0.077-18.081-35.485-18.081-35.485
c1.575,0.189,3.149,0.39,4.726,0.564c1.81,0.2,3.619,0.427,5.434,0.554c3.399,0.238,6.8,0.48,10.204,0.593
c3.017,0.101,6.04,0.072,9.06,0.02c2.6-0.044,5.203-0.133,7.796-0.325c2.904-0.214,5.797-0.562,8.695-0.859
c0.698-0.071,1.394-0.17,2.091-0.256c-0.652,1.558-22.514,35.264-22.329,35.406c-0.876,0.034-1.753,0.101-2.629,0.094
c-1.422-0.012-2.844-0.067-4.266-0.116C95.034,279.511,94.756,279.446,94.477,279.406z"/><path fill="#F5AF00" d="M83.625,262.75c0,0,10.494,12.758,11.485,13.785c-3.299-5.305-9.763-17.937-13.166-26.855
c-0.777-2.037-1.798-3.898-3.016-5.545c-0.39-0.046-1.518-0.183-2.394-0.289C76.641,244.051,83.625,262.75,83.625,262.75z"/><path fill="#F5AF00" d="M118.688,265.125c0,0,5.199-19.431,5.851-20.989c0.008-0.024,0.017-0.047,0.026-0.071
c-0.901,0.143-2.025,0.314-2.648,0.382c-2.957,9.223-16.518,27.771-20.298,32.622C102.038,276.646,118.688,265.125,118.688,265.125
z"/><path fill="#F5AF00" d="M76.812,106.375c0,0-3.764,21.042-4.071,22.463c-0.005,0.031-0.011,0.062-0.016,0.093
c0.858-0.185,1.85-0.287,2.669-0.375c0.96-12.879,14.848-28.759,17.268-31.595C90.234,98.888,76.812,106.375,76.812,106.375z"/><path fill="#F5AF00" d="M125.365,129.18c-0.038-0.068-0.066-0.143-0.114-0.202c-2.459-3.082-2.376-16.353-2.376-16.353
s-15.95-12.485-19.589-15.181c1.658,2.108,10.583,9.49,15.75,25.086c0.528,1.593,2.295,5.1,3.153,6.301
c0.514,0.03,1.948,0.213,3.205,0.382C125.385,129.202,125.375,129.191,125.365,129.18z"/><path fill="#13C822" d="M258.777,94.173c-0.494-0.011-8.733-0.035-12.358-0.036c-3.662,0.747-7.264,1.754-10.774,3.018
c-4.372,1.575-8.502,3.52-12.368,5.821c0.631-0.847,1.229-1.706,1.797-2.578c0.709-1.089,1.344-2.219,1.959-3.311
c0.279-0.495,0.557-0.99,0.841-1.479c0.085-0.146,0.171-0.291,0.257-0.436l0.192-0.325l0.044-0.107
c0.085-0.205,0.263-0.417,0.349-0.622c-0.587-0.003-1.268,0.003-1.855,0c-0.131,0.223-52.37,33.708-54.102,33.889
c0.728,0.011,8.083,0.094,11.032,0.094c0.859,0,1.741-0.493,2.661-0.749c5.015-1.397,9.938-3.344,14.601-5.829
c1.19-0.634,2.366-1.287,3.509-1.977c-1.677,2.198-3.218,4.518-4.62,6.939c-0.095,0.165-0.196,0.329-0.299,0.49l-0.165,0.265
c0,0-0.346,0.588-0.542,0.862c0.268,0,1.589-0.006,1.927,0C201.027,127.837,257.821,94.26,258.777,94.173z"/><path fill="#FF2A64" d="M124.538,244.137c0.439-1.223,0.919-2.432,1.31-3.67c1.197-3.79,1.966-7.665,2.156-11.642
c0.078-1.639,0.134-3.278-0.262-4.898c-0.669-2.736-2.105-5.033-4.016-7.05c-3.137-3.31-6.91-5.704-11.108-7.398
c-9.299-3.752-18.633-7.418-27.942-11.144c-5.973-2.39-11.941-4.799-17.74-7.593c-2.205-1.062-4.377-2.197-6.522-3.377
c-3.144-1.728-5.981-3.88-8.594-6.345c-2.809-2.65-5.559-5.348-7.936-8.404c-3.905-5.021-6.371-10.656-7.293-16.964
c-0.488-3.338-0.589-6.685-0.474-10.052c0.098-2.869,0.355-5.718,0.821-8.548c1.673-10.164,5.812-19.134,12.927-26.662
c5.52-5.84,12.163-9.922,19.704-12.596c4.582-1.625,9.291-2.732,14.112-3.329c2.583-0.32,5.181-0.512,7.774-0.754
c0.284-0.026,0.572,0.001,0.859,0.004c0.314,0.262,0.707,0.471,0.928,0.796c0.563,0.83,0.317,1.739-0.578,2.449
c-2.429,1.927-4.737,3.983-6.862,6.248c-5.769,6.148-9.902,13.22-12.129,21.37c-0.382,1.4-0.624,2.838-0.93,4.258
c-0.173,1.049-0.378,2.094-0.514,3.148c-0.274,2.123-0.375,4.259-0.292,6.396c0.129,3.3,1.286,6.25,3.174,8.93
c2.071,2.94,4.746,5.246,7.693,7.259c4.176,2.852,8.717,4.995,13.395,6.869c5.592,2.24,11.351,3.968,17.135,5.626
c7.189,2.06,14.286,4.396,21.156,7.374c3.926,1.702,7.723,3.647,11.345,5.938c5.261,3.327,9.529,7.646,13.041,12.759
c3.67,5.342,6.119,11.181,7.239,17.563c0.755,4.301,0.941,8.635,0.723,13c-0.197,3.941-0.69,7.831-1.592,11.67
c-2.09,8.904-6.175,16.781-12.229,23.631c-4.635,5.245-9.99,9.592-16.197,12.863c-5.012,2.641-10.322,4.448-15.847,5.649
c-4.77,1.036-9.593,1.68-14.469,1.912c-1.43,0.068-2.863,0.081-4.295,0.119c-0.185-0.141-0.388-0.264-0.552-0.427
c-0.565-0.563-0.579-1.502-0.04-2.046c0.42-0.423,0.841-0.846,1.269-1.261c3.387-3.29,6.512-6.813,9.41-10.537
c3.995-5.132,7.521-10.561,10.275-16.466C123.286,247.276,123.886,245.694,124.538,244.137z"/><path fill="#2BC1E6" d="M94.477,279.406c-1.765-0.123-3.536-0.192-5.294-0.382c-3.287-0.356-6.545-0.908-9.767-1.66
c-9.896-2.308-18.897-6.457-26.724-13.007c-5.516-4.615-9.978-10.11-13.524-16.356c-3.732-6.573-6.244-13.614-7.986-20.947
c-0.077-0.325-0.148-0.672-0.118-0.999c0.071-0.769,0.645-1.374,1.464-1.518c1.127-0.198,2.259-0.423,3.398-0.486
c2.13-0.119,4.27-0.243,6.399-0.164c4.962,0.184,9.746,1.272,14.328,3.194c8.11,3.402,14.595,8.77,19.423,16.13
c0.142,0.217,0.303,0.422,0.456,0.632c0.108,0.206,0.218,0.411,0.324,0.617c0.868,1.687,1.818,3.337,2.585,5.068
c1.758,3.971,3.533,7.933,5.542,11.785c2.169,4.156,4.488,8.223,7.35,11.95c0.87,1.133,1.785,2.243,2.776,3.27
c0.803,0.832,0.654,2.333-0.497,2.794C94.565,279.348,94.522,279.38,94.477,279.406z"/><path fill="#03F443" d="M103.03,93.704c2.001,0.114,4.011,0.141,6,0.362c2.922,0.324,5.843,0.7,8.738,1.21
c5.664,0.998,11.133,2.656,16.314,5.192c6.318,3.093,11.55,7.499,15.804,13.086c4.079,5.357,7.032,11.309,9.232,17.643
c0.835,2.406,1.525,4.863,2.244,7.308c0.421,1.433-0.095,2.283-1.55,2.571c-11.911,2.367-22.39-0.497-31.384-8.669
c-1.095-0.995-2.045-2.148-3.062-3.227c-0.038-0.068-0.066-0.143-0.114-0.202c-2.459-3.082-4.263-6.515-5.632-10.207
c-1.602-4.321-3.817-8.319-6.648-11.966c-2.781-3.583-6.046-6.664-9.684-9.36c-0.333-0.247-0.671-0.5-0.956-0.799
c-0.799-0.838-0.654-2.043,0.301-2.702C102.759,93.855,102.897,93.783,103.03,93.704z"/><path fill="#2BC1E6" d="M172.758,128.049c-1.379,0.013-2.052-0.62-2.052-1.96c-0.003-10.01-0.003-20.02,0-30.03
c0-1.139,0.553-1.849,1.715-2.078c2.497-0.491,4.877-1.306,7.135-2.471c3.331-1.718,6.251-3.95,8.542-6.945
c2.47-3.228,3.766-6.863,3.788-10.946c0.014-2.526,0.025-5.055,0.129-7.579c0.18-4.348,0.443-8.704,1.72-12.893
c1.546-5.073,3.5-9.989,6.607-14.345c4.379-6.139,10.199-10.429,17.193-13.16c3.459-1.351,7.049-2.193,10.728-2.693
c3.806-0.518,7.626-0.673,11.459-0.541c9.573,0.328,18.859,2.148,27.861,5.416c1.11,0.403,1.499,1.09,1.318,2.237
c-0.557,3.548-1.107,7.097-1.657,10.646c-0.589,3.801-2.125,7.176-4.612,10.104c-3.408,4.011-7.746,6.416-12.919,7.303
c-0.996,0.171-2.02,0.203-3.034,0.231c-2.211,0.062-4.349,0.418-6.36,1.388c-1.809,0.873-3.39,2.036-4.652,3.612
c-1.256,1.569-2.466,3.167-3.289,5.02c-0.8,1.801-1.303,3.685-1.448,5.647c-0.117,1.583-0.137,3.172-0.209,4.758
c-0.19,4.169-1.001,8.211-2.525,12.1c-0.427,1.09-0.89,2.165-1.337,3.247c-0.131,0.223-0.264,0.445-0.395,0.669
c-0.915,1.576-1.765,3.195-2.758,4.72c-2.718,4.174-6.043,7.827-9.757,11.137c-4.165,3.711-8.732,6.84-13.649,9.461
c-4.544,2.422-9.295,4.337-14.256,5.719c-2.658,0.741-5.348,1.347-8.092,1.673C176.224,127.705,174.49,127.867,172.758,128.049z"/><path fill="#F5D800" d="M258.777,94.173c0.729-0.009,1.459-0.035,2.188-0.022c0.908,0.016,1.574,0.624,1.694,1.523
c0.024,0.18,0.013,0.364,0.013,0.547c0,9.933,0,19.866,0,29.799c0,0.078,0.001,0.156,0,0.235c-0.025,1.113-0.593,1.756-1.684,1.873
c-2.75,0.295-5.343,1.113-7.822,2.321c-2.546,1.24-4.885,2.803-7.017,4.656c-6.773,5.883-11.572,13.073-14.198,21.675
c-0.873,2.858-1.263,5.796-1.263,8.784c-0.001,31.415-0.026,62.831,0.017,94.246c0.011,8.388-5.798,16.503-14.976,18.432
c-1.215,0.255-2.479,0.372-3.721,0.38c-6.022,0.038-12.045,0.017-18.067,0.017c-0.182,0-0.367,0.006-0.547-0.017
c-0.843-0.109-1.416-0.719-1.473-1.566c-0.014-0.208-0.004-0.417-0.004-0.626c0-37.62-0.037-75.241,0.023-112.861
c0.017-10.725,2.125-21.063,6.623-30.853c0.717-1.56,1.53-3.076,2.298-4.612c0.165-0.265,0.337-0.526,0.494-0.795
c3.118-5.382,6.931-10.217,11.474-14.463c6.795-6.352,14.628-11.007,23.367-14.155c6.38-2.298,12.953-3.711,19.713-4.256
C256.866,94.355,257.821,94.26,258.777,94.173z"/></g></svg>
