<svg id="svg2" xmlns="http://www.w3.org/2000/svg" xmlns:xlink="http://www.w3.org/1999/xlink" viewBox="0 0 179.18 145.608"><defs><style>.cls-1{fill:none;}.cls-2{clip-path:url(#clip-path);}.cls-3{fill:#55acee;}</style><clipPath id="clip-path" transform="translate(-1.328 -1.204)"><rect class="cls-1" x="1.34" y="1.198" width="179.168" height="145.613"/></clipPath></defs><title>Twitter_bird_logo_2012</title><g id="g10"><g id="g12"><g id="g14"><g class="cls-2"><g id="g16"><path id="path22" class="cls-3" d="M180.509,18.438a73.5,73.5,0,0,1-21.11,5.791A36.883,36.883,0,0,0,175.558,3.892a73.5,73.5,0,0,1-23.343,8.918A36.793,36.793,0,0,0,89.579,46.339,104.361,104.361,0,0,1,13.812,7.932,36.8,36.8,0,0,0,25.188,57.008a36.561,36.561,0,0,1-16.651-4.6c-0.006.155-.006,0.308-0.006,0.461A36.784,36.784,0,0,0,38.019,88.918a37.008,37.008,0,0,1-16.6.629,36.8,36.8,0,0,0,34.342,25.53A73.788,73.788,0,0,1,10.1,130.811a75.213,75.213,0,0,1-8.771-.513,104.079,104.079,0,0,0,56.355,16.513c67.612,0,104.581-56.01,104.581-104.59q0-2.389-.1-4.752A74.854,74.854,0,0,0,180.5,18.438" transform="translate(-1.328 -1.204)"/></g></g></g></g></g></svg>